# xmcd
#
# Track frame offsets:
#   183
#   34995
#   46858
#   67108
#   75658
#   90558
#   107083
#   112708
#   158020
#   182383
#   202858
#
# Disc length: 2839 seconds
#
# Revision: 0
# Processed by: cddbd v1.5PL3 Copyright (c) Steve Scherf et al.
# Submitted via: Media_Universe 3.0
#
DISCID=7c0b150b
DTITLE=Alicia Alonso - La Magia del Ballet
DYEAR=1994
DGENRE=Classical
TTITLE0=1
TTITLE1=2
TTITLE2=3
TTITLE3=4
TTITLE4=5
TTITLE5=6
TTITLE6=7
TTITLE7=8
TTITLE8=9
TTITLE9=10
TTITLE10=11
EXTD=
EXTT0=
EXTT1=
EXTT2=
EXTT3=
EXTT4=
EXTT5=
EXTT6=
EXTT7=
EXTT8=
EXTT9=
EXTT10=
PLAYORDER=
